<?xml version="1.0" encoding="UTF-8" standalone="no"?>
<svg
   xmlns:dc="http://purl.org/dc/elements/1.1/"
   xmlns:cc="http://creativecommons.org/ns#"
   xmlns:rdf="http://www.w3.org/1999/02/22-rdf-syntax-ns#"
   xmlns:svg="http://www.w3.org/2000/svg"
   xmlns="http://www.w3.org/2000/svg"
   xmlns:sodipodi="http://sodipodi.sourceforge.net/DTD/sodipodi-0.dtd"
   xmlns:inkscape="http://www.inkscape.org/namespaces/inkscape"
   width="16"
   height="16"
   version="1.1"
   viewBox="0 0 16 16"
   id="svg6"
   sodipodi:docname="icon_highlight.svg"
   inkscape:version="0.92.1 r15371">
  <metadata
     id="metadata12">
    <rdf:RDF>
      <cc:Work
         rdf:about="">
        <dc:format>image/svg+xml</dc:format>
        <dc:type
           rdf:resource="http://purl.org/dc/dcmitype/StillImage" />
      </cc:Work>
    </rdf:RDF>
  </metadata>
  <defs
     id="defs10" />
  <sodipodi:namedview
     pagecolor="#ffffff"
     bordercolor="#666666"
     borderopacity="1"
     objecttolerance="10"
     gridtolerance="10"
     guidetolerance="10"
     inkscape:pageopacity="0"
     inkscape:pageshadow="2"
     inkscape:window-width="1370"
     inkscape:window-height="888"
     id="namedview8"
     showgrid="false"
     inkscape:zoom="14.75"
     inkscape:cx="8"
     inkscape:cy="8"
     inkscape:window-x="0"
     inkscape:window-y="0"
     inkscape:window-maximized="0"
     inkscape:current-layer="svg6" />
  <g
     transform="translate(0 -1036.4)"
     id="g4"
     style="fill:#ffffff">
    <path
       transform="translate(0 1036.4)"
       d="m7 1v3h2v-3h-2zm-2.5352 2.0508l-1.4141 1.4141 1.4141 1.4141 1.4141-1.4141-1.4141-1.4141zm7.0703 0l-1.4141 1.4141 1.4141 1.4141 1.4141-1.4141-1.4141-1.4141zm-3.5352 1.9492c-1.6569 0-3 1.3432-3 3s1.3431 3 3 3 3-1.3432 3-3-1.3431-3-3-3zm-7 2v2h3v-2h-3zm11 0v2h3v-2h-3zm-7.5352 3.1211l-1.4141 1.4141 1.4141 1.4141 1.4141-1.4141-1.4141-1.4141zm7.0703 0l-1.4141 1.4141 1.4141 1.4141 1.4141-1.4141-1.4141-1.4141zm-4.5352 1.8789v3h2v-3h-2z"
       fill="#fc9c9c"
       fill-opacity=".99608"
       id="path2"
       style="fill:#ffffff" />
  </g>
</svg>
